<svg width="18.000000" height="20.000000" viewBox="0 0 18 20" fill="none" xmlns="http://www.w3.org/2000/svg" xmlns:xlink="http://www.w3.org/1999/xlink">
	<desc>
			Created with Pixso.
	</desc>
	<defs/>
	<path id="attachment icon" d="M15.54 10.58L9.25 16.88C8.42 17.61 7.35 18 6.25 17.97C5.15 17.94 4.1 17.49 3.32 16.71C2.54 15.93 2.08 14.88 2.05 13.77C2.02 12.67 2.41 11.6 3.14 10.77L11.29 2.63C11.77 2.17 12.42 1.91 13.09 1.91C13.76 1.91 14.4 2.17 14.89 2.63C15.36 3.11 15.63 3.76 15.63 4.43C15.63 5.11 15.36 5.75 14.89 6.23L7.87 13.25C7.8 13.32 7.71 13.38 7.62 13.43C7.53 13.47 7.43 13.49 7.32 13.5C7.22 13.5 7.12 13.48 7.02 13.45C6.93 13.41 6.84 13.36 6.77 13.29C6.69 13.22 6.63 13.13 6.59 13.04C6.55 12.95 6.52 12.85 6.52 12.75C6.51 12.64 6.53 12.54 6.57 12.45C6.6 12.35 6.66 12.26 6.73 12.19L11.95 6.98C12.14 6.78 12.25 6.52 12.25 6.25C12.25 5.98 12.14 5.72 11.95 5.53C11.76 5.34 11.5 5.23 11.22 5.23C10.95 5.23 10.69 5.34 10.5 5.53L5.28 10.76C5.02 11.02 4.81 11.33 4.67 11.67C4.53 12.01 4.45 12.38 4.45 12.74C4.45 13.11 4.53 13.48 4.67 13.82C4.81 14.16 5.02 14.46 5.28 14.72C5.81 15.23 6.52 15.52 7.26 15.52C8 15.52 8.71 15.23 9.24 14.72L16.25 7.7C17.06 6.83 17.5 5.68 17.48 4.5C17.46 3.31 16.98 2.18 16.14 1.34C15.3 0.5 14.17 0.02 12.98 0C11.8 -0.03 10.65 0.42 9.78 1.22L1.63 9.37C0.54 10.58 -0.05 12.18 0 13.82C0.04 15.45 0.72 17.01 1.89 18.16C3.06 19.31 4.62 19.97 6.26 19.99C7.9 20.02 9.48 19.41 10.69 18.3L16.99 12.01C17.08 11.91 17.16 11.8 17.21 11.67C17.26 11.55 17.29 11.42 17.29 11.28C17.29 11.15 17.26 11.02 17.21 10.89C17.16 10.77 17.08 10.65 16.99 10.56C16.89 10.46 16.78 10.39 16.66 10.34C16.53 10.29 16.4 10.26 16.26 10.26C16.13 10.26 16 10.29 15.87 10.34C15.75 10.39 15.64 10.46 15.54 10.56L15.54 10.58Z" fill="#6588DE" fill-opacity="1.000000" fill-rule="nonzero"/>
</svg>
