<svg width="20.000000" height="20.000000" viewBox="0 0 20 20" fill="none" xmlns="http://www.w3.org/2000/svg" xmlns:xlink="http://www.w3.org/1999/xlink">
	<desc>
			Created with Pixso.
	</desc>
	<defs/>
	<path id="Vector" d="M10 0C8.02 0 6.08 0.58 4.44 1.68C2.79 2.78 1.51 4.34 0.76 6.17C0 8 -0.2 10.01 0.19 11.95C0.57 13.89 1.53 15.67 2.92 17.07C4.32 18.46 6.1 19.42 8.04 19.8C9.98 20.19 11.99 19.99 13.82 19.23C15.65 18.48 17.21 17.2 18.31 15.55C19.41 13.91 20 11.97 20 10C20 8.68 19.74 7.38 19.23 6.17C18.73 4.95 17.99 3.85 17.07 2.92C16.14 2 15.04 1.26 13.82 0.76C12.61 0.25 11.31 0 10 0ZM10 18C7.87 18 5.84 17.15 4.34 15.65C2.84 14.15 2 12.12 2 10C1.99 8.22 2.59 6.49 3.69 5.1L14.9 16.31C13.5 17.4 11.77 18 10 18ZM16.31 14.89L5.09 3.68C6.49 2.59 8.22 1.99 10 2C12.12 2 14.15 2.84 15.65 4.34C17.15 5.84 18 7.87 18 10C18 11.77 17.4 13.5 16.31 14.89Z" fill="#6588DE" fill-opacity="1.000000" fill-rule="nonzero"/>
</svg>
