<svg width="12.000000" height="12.000000" viewBox="0 0 12 12" fill="none" xmlns="http://www.w3.org/2000/svg" xmlns:xlink="http://www.w3.org/1999/xlink">
	<desc>
			Created with Pixso.
	</desc>
	<defs/>
	<path id="Vector" d="M10.51 6.6C10.38 6.6 10.24 6.55 10.1 6.52C9.84 6.46 9.57 6.39 9.32 6.29C9.04 6.19 8.73 6.19 8.45 6.3C8.18 6.41 7.95 6.62 7.82 6.89L7.69 7.16C7.1 6.83 6.56 6.43 6.09 5.96C5.62 5.48 5.21 4.94 4.88 4.35L5.14 4.19C5.4 4.06 5.61 3.83 5.72 3.56C5.83 3.28 5.84 2.97 5.74 2.69C5.64 2.44 5.56 2.17 5.5 1.9C5.47 1.77 5.45 1.63 5.43 1.49C5.36 1.07 5.14 0.69 4.8 0.41C4.47 0.14 4.06 -0.01 3.62 0L1.82 0C1.56 -0.01 1.3 0.05 1.06 0.15C0.83 0.26 0.62 0.41 0.45 0.61C0.27 0.8 0.15 1.03 0.07 1.28C0 1.53 -0.02 1.79 0.01 2.05C0.33 4.57 1.48 6.91 3.29 8.71C5.09 10.5 7.44 11.65 9.96 11.96L10.19 11.96C10.63 11.96 11.06 11.8 11.39 11.5C11.58 11.33 11.74 11.12 11.84 10.89C11.94 10.66 12 10.4 12 10.15L12 8.34C11.99 7.92 11.84 7.52 11.56 7.2C11.29 6.88 10.92 6.67 10.51 6.6ZM10.81 10.21C10.81 10.29 10.79 10.38 10.76 10.46C10.72 10.53 10.67 10.6 10.6 10.66C10.54 10.72 10.46 10.76 10.37 10.79C10.29 10.81 10.2 10.82 10.11 10.81C7.86 10.52 5.76 9.49 4.16 7.88C2.55 6.27 1.53 4.17 1.25 1.91C1.24 1.82 1.25 1.73 1.28 1.65C1.3 1.56 1.35 1.48 1.4 1.42C1.46 1.35 1.53 1.3 1.61 1.27C1.68 1.23 1.77 1.21 1.85 1.21L3.66 1.21C3.8 1.21 3.94 1.25 4.05 1.34C4.16 1.43 4.23 1.55 4.26 1.69C4.29 1.85 4.32 2.01 4.35 2.18C4.42 2.49 4.52 2.8 4.63 3.11L3.79 3.5C3.72 3.53 3.65 3.58 3.6 3.64C3.54 3.7 3.5 3.76 3.47 3.84C3.45 3.91 3.43 3.99 3.44 4.07C3.44 4.15 3.46 4.23 3.49 4.3C4.36 6.16 5.85 7.65 7.71 8.52C7.85 8.58 8.02 8.58 8.17 8.52C8.24 8.49 8.31 8.45 8.37 8.39C8.43 8.34 8.47 8.27 8.51 8.2L8.88 7.36C9.19 7.47 9.51 7.56 9.83 7.64C9.99 7.67 10.16 7.7 10.32 7.73C10.46 7.76 10.58 7.83 10.67 7.94C10.75 8.05 10.8 8.19 10.8 8.33L10.81 10.21Z" fill="#F2F6F7" fill-opacity="1.000000" fill-rule="nonzero"/>
</svg>
