<svg width="24.000000" height="24.000000" viewBox="0 0 24 24" fill="none" xmlns="http://www.w3.org/2000/svg" xmlns:xlink="http://www.w3.org/1999/xlink">
	<desc>
			Created with Pixso.
	</desc>
	<defs/>
	<circle id="Ellipse 16" cx="12.000000" cy="12.000000" r="12.000000" fill="#6588DE" fill-opacity="1.000000"/>
	<path id="Vector" d="M15.71 8.29C15.62 8.2 15.51 8.12 15.39 8.07C15.26 8.02 15.13 8 15 8C14.87 8 14.74 8.02 14.62 8.07C14.49 8.12 14.38 8.2 14.29 8.29L12 10.59L9.71 8.29C9.52 8.1 9.27 8 9 8C8.73 8 8.48 8.1 8.29 8.29C8.1 8.48 8 8.73 8 9C8 9.27 8.1 9.52 8.29 9.71L10.59 12L8.29 14.29C8.2 14.38 8.12 14.49 8.07 14.62C8.02 14.74 8 14.87 8 15C8 15.13 8.02 15.26 8.07 15.39C8.12 15.51 8.2 15.62 8.29 15.71C8.38 15.8 8.49 15.88 8.62 15.93C8.74 15.98 8.87 16.01 9 16.01C9.13 16.01 9.26 15.98 9.39 15.93C9.51 15.88 9.62 15.8 9.71 15.71L12 13.41L14.29 15.71C14.38 15.8 14.49 15.88 14.62 15.93C14.74 15.98 14.87 16.01 15 16.01C15.13 16.01 15.26 15.98 15.39 15.93C15.51 15.88 15.62 15.8 15.71 15.71C15.8 15.62 15.88 15.51 15.93 15.39C15.98 15.26 16.01 15.13 16.01 15C16.01 14.87 15.98 14.74 15.93 14.62C15.88 14.49 15.8 14.38 15.71 14.29L13.41 12L15.71 9.71C15.8 9.62 15.88 9.51 15.93 9.39C15.98 9.26 16.01 9.13 16.01 9C16.01 8.87 15.98 8.74 15.93 8.62C15.88 8.49 15.8 8.38 15.71 8.29Z" fill="#EBF6F9" fill-opacity="1.000000" fill-rule="evenodd"/>
</svg>
