<svg width="26.000000" height="20.000000" viewBox="0 0 26 20" fill="none" xmlns="http://www.w3.org/2000/svg" xmlns:xlink="http://www.w3.org/1999/xlink">
	<desc>
			Created with Pixso.
	</desc>
	<defs/>
	<path id="Vector" d="M13.29 10.25C13.92 9.71 14.42 9.04 14.77 8.28C15.11 7.53 15.29 6.71 15.29 5.88C15.29 4.32 14.67 2.82 13.57 1.72C12.46 0.61 10.97 0 9.41 0C7.85 0 6.35 0.61 5.25 1.72C4.14 2.82 3.52 4.32 3.52 5.88C3.52 6.71 3.7 7.53 4.05 8.28C4.39 9.04 4.9 9.71 5.52 10.25C3.88 11 2.48 12.2 1.5 13.72C0.52 15.24 0 17.01 0 18.82C0 19.13 0.12 19.43 0.34 19.65C0.56 19.87 0.86 20 1.17 20C1.48 20 1.78 19.87 2 19.65C2.22 19.43 2.35 19.13 2.35 18.82C2.35 16.95 3.09 15.15 4.42 13.83C5.74 12.5 7.54 11.76 9.41 11.76C11.28 11.76 13.07 12.5 14.4 13.83C15.72 15.15 16.47 16.95 16.47 18.82C16.47 19.13 16.59 19.43 16.81 19.65C17.03 19.87 17.33 20 17.64 20C17.95 20 18.25 19.87 18.47 19.65C18.69 19.43 18.82 19.13 18.82 18.82C18.82 17.01 18.29 15.24 17.31 13.72C16.33 12.2 14.94 11 13.29 10.25ZM9.41 9.41C8.71 9.41 8.03 9.2 7.45 8.81C6.87 8.42 6.41 7.87 6.15 7.23C5.88 6.58 5.81 5.87 5.95 5.19C6.08 4.5 6.42 3.88 6.91 3.38C7.41 2.89 8.03 2.55 8.72 2.42C9.4 2.28 10.11 2.35 10.76 2.62C11.4 2.88 11.95 3.34 12.34 3.92C12.73 4.5 12.94 5.18 12.94 5.88C12.94 6.81 12.56 7.71 11.9 8.37C11.24 9.03 10.34 9.41 9.41 9.41ZM20.87 9.78C21.62 8.94 22.11 7.89 22.28 6.77C22.45 5.65 22.3 4.5 21.83 3.47C21.37 2.43 20.61 1.55 19.66 0.94C18.71 0.32 17.6 -0.01 16.47 0C16.15 0 15.85 0.12 15.63 0.34C15.41 0.56 15.29 0.86 15.29 1.17C15.29 1.48 15.41 1.78 15.63 2C15.85 2.22 16.15 2.35 16.47 2.35C17.4 2.35 18.3 2.72 18.96 3.38C19.62 4.04 20 4.94 20 5.88C19.99 6.5 19.83 7.1 19.52 7.64C19.21 8.17 18.77 8.62 18.23 8.92C18.06 9.03 17.91 9.17 17.81 9.34C17.7 9.51 17.65 9.71 17.64 9.91C17.64 10.11 17.68 10.31 17.78 10.49C17.87 10.66 18 10.81 18.17 10.92L18.63 11.23L18.78 11.31C20.2 11.99 21.4 13.05 22.23 14.38C23.07 15.71 23.5 17.25 23.49 18.82C23.49 19.13 23.61 19.43 23.83 19.65C24.05 19.87 24.35 20 24.67 20C24.98 20 25.28 19.87 25.5 19.65C25.72 19.43 25.84 19.13 25.84 18.82C25.85 17.01 25.4 15.24 24.53 13.65C23.66 12.07 22.4 10.74 20.87 9.78Z" fill="#AFBCC6" fill-opacity="0.500000" fill-rule="nonzero"/>
</svg>
