<svg width="20.000000" height="20.000000" viewBox="0 0 20 20" fill="none" xmlns="http://www.w3.org/2000/svg" xmlns:xlink="http://www.w3.org/1999/xlink">
	<desc>
			Created with Pixso.
	</desc>
	<defs/>
	<path id="Vector" d="M13.63 10.7C14.61 9.93 15.33 8.88 15.68 7.68C16.03 6.48 16 5.21 15.59 4.03C15.18 2.85 14.42 1.83 13.4 1.11C12.39 0.38 11.17 0 9.93 0C8.68 0 7.46 0.38 6.45 1.11C5.43 1.83 4.67 2.85 4.26 4.03C3.85 5.21 3.82 6.48 4.17 7.68C4.52 8.88 5.24 9.93 6.22 10.7C4.54 11.38 3.07 12.49 1.98 13.93C0.88 15.37 0.2 17.08 0 18.88C-0.01 19.01 0 19.14 0.04 19.27C0.07 19.4 0.13 19.52 0.22 19.62C0.38 19.83 0.63 19.96 0.89 19.99C1.16 20.02 1.42 19.94 1.63 19.77C1.84 19.61 1.97 19.36 2 19.1C2.22 17.15 3.15 15.34 4.62 14.03C6.08 12.72 7.98 12 9.95 12C11.91 12 13.81 12.72 15.27 14.03C16.74 15.34 17.67 17.15 17.89 19.1C17.92 19.35 18.04 19.57 18.22 19.74C18.4 19.9 18.64 19.99 18.89 19.99L19 19.99C19.26 19.96 19.5 19.83 19.67 19.62C19.83 19.41 19.91 19.15 19.88 18.89C19.68 17.09 18.99 15.37 17.89 13.93C16.79 12.49 15.32 11.37 13.63 10.7ZM9.93 9.99C9.13 9.99 8.36 9.76 7.7 9.32C7.05 8.88 6.53 8.26 6.23 7.53C5.93 6.8 5.85 5.99 6 5.22C6.16 4.44 6.54 3.73 7.1 3.17C7.66 2.61 8.37 2.23 9.15 2.08C9.92 1.92 10.72 2 11.46 2.3C12.19 2.61 12.81 3.12 13.25 3.78C13.69 4.43 13.92 5.21 13.92 6C13.92 7.06 13.5 8.07 12.75 8.82C12 9.57 10.99 9.99 9.93 9.99Z" fill="#6588DE" fill-opacity="1.000000" fill-rule="nonzero"/>
</svg>
