<svg width="18.000000" height="16.000000" viewBox="0 0 18 16" fill="none" xmlns="http://www.w3.org/2000/svg" xmlns:xlink="http://www.w3.org/1999/xlink">
	<desc>
			Created with Pixso.
	</desc>
	<defs/>
	<path id="Vector" d="M15.29 2.69L14.14 2.69L13.85 1.79C13.67 1.27 13.32 0.81 12.86 0.49C12.41 0.16 11.86 -0.01 11.3 3.05e-5L6.69 3.05e-5C6.13 0 5.57 0.17 5.12 0.51C4.66 0.84 4.31 1.3 4.14 1.84L3.85 2.74L2.69 2.74C1.98 2.74 1.29 3.02 0.79 3.53C0.28 4.04 0 4.72 0 5.44L0 12.64C0 13.36 0.28 14.04 0.79 14.55C1.29 15.06 1.98 15.34 2.69 15.34L15.29 15.34C16.01 15.34 16.7 15.06 17.2 14.55C17.71 14.04 17.99 13.36 17.99 12.64L17.99 5.44C18 5.08 17.93 4.73 17.8 4.39C17.67 4.06 17.47 3.76 17.22 3.5C16.97 3.25 16.67 3.04 16.34 2.9C16.01 2.77 15.65 2.69 15.29 2.69ZM16.19 12.59C16.19 12.83 16.1 13.06 15.93 13.23C15.76 13.4 15.53 13.49 15.29 13.49L2.69 13.49C2.46 13.49 2.23 13.4 2.06 13.23C1.89 13.06 1.79 12.83 1.79 12.59L1.79 5.39C1.79 5.16 1.89 4.93 2.06 4.76C2.23 4.59 2.46 4.49 2.69 4.49L4.5 4.49C4.69 4.51 4.89 4.45 5.05 4.34C5.21 4.23 5.33 4.07 5.39 3.88L5.88 2.41C5.94 2.23 6.06 2.07 6.21 1.96C6.36 1.85 6.55 1.79 6.74 1.79L11.34 1.79C11.53 1.79 11.72 1.85 11.87 1.96C12.02 2.07 12.14 2.23 12.2 2.41L12.68 3.88C12.74 4.05 12.85 4.2 13 4.31C13.14 4.42 13.31 4.49 13.49 4.49L15.29 4.49C15.53 4.49 15.76 4.59 15.93 4.76C16.1 4.93 16.19 5.16 16.19 5.39L16.19 12.59ZM9 4.49C8.28 4.49 7.59 4.71 7 5.1C6.4 5.5 5.94 6.06 5.67 6.72C5.4 7.38 5.33 8.1 5.46 8.8C5.6 9.5 5.95 10.14 6.45 10.64C6.95 11.14 7.59 11.49 8.29 11.63C8.99 11.76 9.71 11.69 10.37 11.42C11.03 11.15 11.59 10.69 11.99 10.09C12.38 9.5 12.59 8.81 12.59 8.09C12.59 7.14 12.22 6.22 11.54 5.55C10.87 4.87 9.95 4.49 9 4.49ZM9 9.89C8.64 9.89 8.29 9.79 8 9.59C7.7 9.39 7.47 9.11 7.33 8.78C7.2 8.45 7.16 8.09 7.23 7.74C7.3 7.39 7.47 7.07 7.72 6.82C7.97 6.57 8.29 6.4 8.64 6.33C8.99 6.26 9.35 6.3 9.68 6.43C10.01 6.57 10.29 6.8 10.49 7.09C10.69 7.39 10.79 7.74 10.79 8.09C10.79 8.57 10.61 9.03 10.27 9.37C9.93 9.71 9.47 9.89 9 9.89Z" fill="#6588DE" fill-opacity="1.000000" fill-rule="nonzero"/>
</svg>
