<svg width="21.000000" height="20.000000" viewBox="0 0 21 20" fill="none" xmlns="http://www.w3.org/2000/svg" xmlns:xlink="http://www.w3.org/1999/xlink">
	<desc>
			Created with Pixso.
	</desc>
	<defs/>
	<path id="Vector" d="M18.33 7.31L4.33 0.31C3.78 0.03 3.16 -0.06 2.55 0.03C1.94 0.12 1.37 0.4 0.92 0.83C0.48 1.25 0.17 1.81 0.05 2.41C-0.07 3.02 0 3.65 0.25 4.21L2.65 9.58C2.71 9.71 2.74 9.85 2.74 9.99C2.74 10.13 2.71 10.27 2.65 10.4L0.25 15.77C0.05 16.23 -0.04 16.73 0 17.23C0.04 17.73 0.21 18.21 0.48 18.63C0.75 19.05 1.12 19.39 1.56 19.63C2 19.87 2.49 19.99 2.99 20C3.46 19.99 3.92 19.88 4.34 19.67L18.34 12.67C18.84 12.42 19.26 12.04 19.55 11.57C19.84 11.09 20 10.55 20 9.99C20 9.44 19.84 8.89 19.55 8.42C19.26 7.94 18.84 7.56 18.34 7.31L18.33 7.31ZM17.44 10.88L3.44 17.88C3.26 17.97 3.05 18 2.85 17.97C2.65 17.94 2.46 17.84 2.32 17.7C2.17 17.56 2.07 17.38 2.03 17.18C1.99 16.98 2.01 16.77 2.09 16.58L4.48 11.21C4.52 11.14 4.54 11.07 4.56 10.99L11.45 10.99C11.72 10.99 11.97 10.89 12.16 10.7C12.35 10.51 12.45 10.26 12.45 9.99C12.45 9.73 12.35 9.47 12.16 9.28C11.97 9.1 11.72 8.99 11.45 8.99L4.56 8.99C4.54 8.92 4.52 8.84 4.48 8.77L2.09 3.4C2.01 3.21 1.99 3.01 2.03 2.81C2.07 2.61 2.17 2.42 2.32 2.28C2.46 2.14 2.65 2.05 2.85 2.01C3.05 1.98 3.26 2.01 3.44 2.1L17.44 9.1C17.61 9.19 17.75 9.31 17.84 9.47C17.94 9.63 17.99 9.81 17.99 9.99C17.99 10.18 17.94 10.36 17.84 10.51C17.75 10.67 17.61 10.8 17.44 10.88Z" fill="#FDFDFE" fill-opacity="1.000000" fill-rule="nonzero"/>
</svg>
