<svg width="21.000000" height="20.000000" viewBox="0 0 21 20" fill="none" xmlns="http://www.w3.org/2000/svg" xmlns:xlink="http://www.w3.org/1999/xlink">
	<desc>
			Created with Pixso.
	</desc>
	<defs/>
	<path id="Vector" d="M20.9 7.56C20.84 7.37 20.72 7.2 20.56 7.08C20.4 6.95 20.21 6.88 20 6.86L14.05 5.99L11.39 0.58C11.3 0.41 11.17 0.26 11 0.15C10.83 0.05 10.64 0 10.45 0C10.25 0 10.06 0.05 9.89 0.15C9.72 0.26 9.59 0.41 9.5 0.58L6.84 5.98L0.89 6.86C0.69 6.89 0.51 6.97 0.36 7.09C0.21 7.22 0.1 7.39 0.04 7.57C-0.01 7.75 -0.02 7.95 0.03 8.13C0.07 8.31 0.17 8.48 0.3 8.62L4.62 12.8L3.58 18.74C3.54 18.94 3.56 19.14 3.63 19.32C3.71 19.51 3.83 19.67 3.99 19.79C4.15 19.9 4.34 19.97 4.53 19.98C4.73 19.99 4.92 19.95 5.09 19.86L10.45 17.07L15.78 19.87C15.93 19.95 16.09 20 16.26 20C16.48 20 16.7 19.93 16.88 19.8C17.04 19.68 17.17 19.52 17.24 19.33C17.31 19.15 17.33 18.95 17.3 18.75L16.25 12.81L20.57 8.63C20.72 8.5 20.83 8.33 20.89 8.14C20.95 7.95 20.96 7.75 20.9 7.56ZM14.47 11.74C14.35 11.86 14.26 12.01 14.21 12.17C14.15 12.33 14.14 12.51 14.17 12.67L14.92 17.06L10.99 14.96C10.84 14.88 10.67 14.84 10.5 14.84C10.33 14.84 10.16 14.88 10.01 14.96L6.08 17.06L6.83 12.67C6.86 12.51 6.84 12.33 6.79 12.17C6.74 12.01 6.65 11.86 6.52 11.74L3.39 8.61L7.79 7.97C7.96 7.94 8.12 7.88 8.26 7.78C8.4 7.68 8.51 7.55 8.58 7.39L10.45 3.41L12.41 7.4C12.49 7.56 12.6 7.69 12.74 7.79C12.88 7.89 13.04 7.96 13.21 7.98L17.61 8.62L14.47 11.74Z" fill="#AFBCC6" fill-opacity="0.500000" fill-rule="nonzero"/>
</svg>
