<svg width="18.000000" height="20.000000" viewBox="0 0 18 20" fill="none" xmlns="http://www.w3.org/2000/svg" xmlns:xlink="http://www.w3.org/1999/xlink">
	<desc>
			Created with Pixso.
	</desc>
	<defs/>
	<path id="Vector" d="M17 4L13 4L13 3C13 2.2 12.68 1.44 12.12 0.87C11.55 0.31 10.79 0 10 0L8 0C7.2 0 6.44 0.31 5.87 0.87C5.31 1.44 5 2.2 5 3L5 4L1 4C0.73 4 0.48 4.1 0.29 4.29C0.1 4.48 0 4.73 0 5C0 5.26 0.1 5.51 0.29 5.7C0.48 5.89 0.73 6 1 6L2 6L2 17C2 17.79 2.31 18.55 2.87 19.12C3.44 19.68 4.2 20 5 20L13 20C13.79 20 14.55 19.68 15.12 19.12C15.68 18.55 16 17.79 16 17L16 6L17 6C17.26 6 17.51 5.89 17.7 5.7C17.89 5.51 18 5.26 18 5C18 4.73 17.89 4.48 17.7 4.29C17.51 4.1 17.26 4 17 4ZM7 3C7 2.73 7.1 2.48 7.29 2.29C7.48 2.1 7.73 2 8 2L10 2C10.26 2 10.51 2.1 10.7 2.29C10.89 2.48 11 2.73 11 3L11 4L7 4L7 3ZM14 17C14 17.26 13.89 17.51 13.7 17.7C13.51 17.89 13.26 18 13 18L5 18C4.73 18 4.48 17.89 4.29 17.7C4.1 17.51 4 17.26 4 17L4 6L14 6L14 17Z" fill="#6588DE" fill-opacity="1.000000" fill-rule="nonzero"/>
</svg>
